# xmcd CD database file
#
# Track frame offsets:
#	150
#	12387
#	21995
#	35101
#	45884
#	58331
#	71739
#	84331
#	96579
#	107167
#	121302
#	133064
#
# Disc length: 1938 seconds
#
# Revision: 0
# Processed by: cddbd v1.5.1PL2 Copyright (c) Steve Scherf et al.
# Submitted via: CDex 1.70beta2
#
DISCID=aa07900c
DTITLE=Various Artist - Country Forever
DYEAR=2003
DGENRE=Country
TTITLE0=Lynn Anderson - Stand By Your Man
TTITLE1=Willie Nelson - Let's Pretend
TTITLE2=Kenny Rogers and The First Edition - Ruby Don't Take Your Love To Town
TTITLE3=Dolly Parton - It Wasn't God Who Made Honky Tonk Angels
TTITLE4=Porter Wagoner - Satisfied Mind
TTITLE5=David Houston - Almost Persuaded
TTITLE6=Kitty Wells - Makin' Believe
TTITLE7=Jack Green - All The Time
TTITLE8=Ferlin Husky - Wings Of A Dove
TTITLE9=Frankie Laine - Don't Fence Me In
TTITLE10=Donna Fargo - The Happiest Girl In The Whole U.S.A.
TTITLE11=Freddy Fender - Before The Next Teardrop Falls (Live)
EXTD=YEAR: 2003
EXTT0=
EXTT1=
EXTT2=
EXTT3=
EXTT4=
EXTT5=
EXTT6=
EXTT7=
EXTT8=
EXTT9=
EXTT10=
EXTT11=
PLAYORDER=
